<svg width="97" height="23" viewBox="0 0 97 23" fill="none" xmlns="http://www.w3.org/2000/svg">
<path d="M8.07812 15.3906C8.07812 14.526 7.60417 13.7865 6.65625 13.1719C6.52083 13.099 5.97396 12.8073 5.01562 12.2969C4.14062 11.8385 3.59375 11.3854 3.375 10.9375C3.27083 10.7188 3.21875 10.4896 3.21875 10.25C3.21875 9.63542 3.51562 9.22917 4.10938 9.03125C4.30729 8.96875 4.51562 8.9375 4.73438 8.9375C5.58854 8.9375 6.22917 9.26042 6.65625 9.90625C6.91667 10.3125 7.05208 10.7969 7.0625 11.3594H7.67188V8.53125C7.38021 8.53125 7.20833 8.63021 7.15625 8.82812C7.14583 8.90104 7.14062 8.98438 7.14062 9.07812C6.27604 8.67188 5.36458 8.46875 4.40625 8.46875C3.14583 8.46875 2.19792 8.79688 1.5625 9.45312C1.15625 9.88021 0.953125 10.3854 0.953125 10.9688C0.953125 11.8333 1.44792 12.5729 2.4375 13.1875C2.5625 13.2708 3.125 13.5677 4.125 14.0781C5.02083 14.5469 5.57812 15 5.79688 15.4375C5.89062 15.6458 5.9375 15.8594 5.9375 16.0781C5.9375 16.8281 5.60417 17.3281 4.9375 17.5781C4.69792 17.6615 4.43229 17.7031 4.14062 17.7031C3.03646 17.7031 2.26042 17.1979 1.8125 16.1875C1.625 15.7604 1.51042 15.2708 1.46875 14.7188H0.859375V18.0312C1.14062 18.0312 1.30729 17.9479 1.35938 17.7812C1.38021 17.6771 1.39062 17.5365 1.39062 17.3594C2.19271 17.8906 3.16146 18.1562 4.29688 18.1562C5.61979 18.1562 6.63542 17.8177 7.34375 17.1406C7.83333 16.6615 8.07812 16.0781 8.07812 15.3906ZM8.95312 11.7656H10.0312V15.6719C10.0312 17.1823 10.6562 18.0104 11.9062 18.1562C12.0312 18.1667 12.1562 18.1719 12.2812 18.1719C13.0833 18.1719 13.6354 17.9115 13.9375 17.3906C14.0833 17.1302 14.1979 16.7865 14.2812 16.3594L13.8594 16.2969C13.651 17.1406 13.3438 17.6042 12.9375 17.6875C12.875 17.6979 12.8125 17.7031 12.75 17.7031C12.3646 17.7031 12.1302 17.4323 12.0469 16.8906C12.026 16.7656 12.0156 16.6354 12.0156 16.5V11.7656H14.0781V11.3594H12.0156V9.54688L10.0312 9.875V11.3594H8.95312V11.7656ZM18.7188 17.5938H17.5625V14.2188C17.6354 13.125 17.901 12.4583 18.3594 12.2188C18.4323 12.1875 18.5 12.1719 18.5625 12.1719C18.6771 12.1719 18.8021 12.2917 18.9375 12.5312C19.125 12.8646 19.3281 13.0729 19.5469 13.1562C19.651 13.1875 19.7656 13.2031 19.8906 13.2031C20.3073 13.2031 20.6042 13.0052 20.7812 12.6094C20.8438 12.474 20.875 12.3333 20.875 12.1875C20.875 11.6667 20.6198 11.3385 20.1094 11.2031C19.9844 11.1719 19.8542 11.1562 19.7188 11.1562C19.0729 11.1562 18.5052 11.4115 18.0156 11.9219C17.7969 12.1719 17.6302 12.4427 17.5156 12.7344L17.4062 11.2812H14.6719V11.6875H15.5781V16.7812C15.5781 17.2396 15.3958 17.5 15.0312 17.5625C14.9271 17.5833 14.8073 17.5938 14.6719 17.5938V18H19.0938C19.0938 17.7604 19.026 17.6302 18.8906 17.6094C18.8385 17.599 18.7812 17.5938 18.7188 17.5938ZM24.9219 11.4531C25.5885 11.474 25.9271 12.0417 25.9375 13.1562C25.9375 13.6458 25.7917 13.9479 25.5 14.0625C25.2917 14.1354 24.9792 14.1615 24.5625 14.1406L23.5625 14.0938C23.6354 12.3646 24.0885 11.4844 24.9219 11.4531ZM27.8438 16.3906L27.4688 16.2656C27.1771 16.901 26.7188 17.3333 26.0938 17.5625C25.8438 17.6562 25.5885 17.7031 25.3281 17.7031C24.4948 17.7031 23.9583 17.1719 23.7188 16.1094C23.625 15.6719 23.5729 15.151 23.5625 14.5469L25 14.5938C26.6771 14.6458 27.651 14.3802 27.9219 13.7969C27.9844 13.651 28.0156 13.4896 28.0156 13.3125C28.0156 12.4271 27.5625 11.7812 26.6562 11.375C26.1458 11.1562 25.5677 11.0469 24.9219 11.0469C23.7448 11.0469 22.8281 11.4479 22.1719 12.25C21.6719 12.875 21.4219 13.651 21.4219 14.5781C21.4219 16.0885 21.9896 17.1406 23.125 17.7344C23.6667 18.0156 24.2812 18.1562 24.9688 18.1562C26.1875 18.1562 27.0625 17.7292 27.5938 16.875C27.6979 16.7188 27.7812 16.5573 27.8438 16.3906ZM32.3594 11.4531C33.026 11.474 33.3646 12.0417 33.375 13.1562C33.375 13.6458 33.2292 13.9479 32.9375 14.0625C32.7292 14.1354 32.4167 14.1615 32 14.1406L31 14.0938C31.0729 12.3646 31.526 11.4844 32.3594 11.4531ZM35.2812 16.3906L34.9062 16.2656C34.6146 16.901 34.1562 17.3333 33.5312 17.5625C33.2812 17.6562 33.026 17.7031 32.7656 17.7031C31.9323 17.7031 31.3958 17.1719 31.1562 16.1094C31.0625 15.6719 31.0104 15.151 31 14.5469L32.4375 14.5938C34.1146 14.6458 35.0885 14.3802 35.3594 13.7969C35.4219 13.651 35.4531 13.4896 35.4531 13.3125C35.4531 12.4271 35 11.7812 34.0938 11.375C33.5833 11.1562 33.0052 11.0469 32.3594 11.0469C31.1823 11.0469 30.2656 11.4479 29.6094 12.25C29.1094 12.875 28.8594 13.651 28.8594 14.5781C28.8594 16.0885 29.4271 17.1406 30.5625 17.7344C31.1042 18.0156 31.7188 18.1562 32.4062 18.1562C33.625 18.1562 34.5 17.7292 35.0312 16.875C35.1354 16.7188 35.2188 16.5573 35.2812 16.3906ZM36.0625 11.7656H37.1406V15.6719C37.1406 17.1823 37.7656 18.0104 39.0156 18.1562C39.1406 18.1667 39.2656 18.1719 39.3906 18.1719C40.1927 18.1719 40.7448 17.9115 41.0469 17.3906C41.1927 17.1302 41.3073 16.7865 41.3906 16.3594L40.9688 16.2969C40.7604 17.1406 40.4531 17.6042 40.0469 17.6875C39.9844 17.6979 39.9219 17.7031 39.8594 17.7031C39.474 17.7031 39.2396 17.4323 39.1562 16.8906C39.1354 16.7656 39.125 16.6354 39.125 16.5V11.7656H41.1875V11.3594H39.125V9.54688L37.1406 9.875V11.3594H36.0625V11.7656Z" fill="black"/>
<path d="M75.5156 17.3906C75.5052 17.7865 75.5938 18.0052 75.7812 18.0469C75.8542 18.0677 75.9479 18.0781 76.0625 18.0781V15H75.5469C75.1615 16.4479 74.4792 17.3073 73.5 17.5781C73.2292 17.651 72.9271 17.6875 72.5938 17.6875C71.2708 17.6875 70.4427 16.9375 70.1094 15.4375C69.9844 14.8438 69.9219 14.1094 69.9219 13.2344C69.9323 10.3802 70.8646 8.94792 72.7188 8.9375C73.6979 8.9375 74.4219 9.33854 74.8906 10.1406C75.1094 10.526 75.3021 11.0208 75.4688 11.625H76.0156L75.9688 8.54688C75.6979 8.54688 75.5365 8.63021 75.4844 8.79688C75.4635 8.90104 75.4583 9.03646 75.4688 9.20312C74.5625 8.71354 73.5625 8.46875 72.4688 8.46875C70.7188 8.46875 69.3802 9.07812 68.4531 10.2969C67.7969 11.1719 67.4688 12.1771 67.4688 13.3125C67.4688 14.6562 67.901 15.7865 68.7656 16.7031C69.6927 17.6719 70.9115 18.1562 72.4219 18.1562C73.4948 18.1562 74.526 17.901 75.5156 17.3906ZM82.4375 18.1562C83.1979 18.1562 83.6719 17.8802 83.8594 17.3281C83.9219 17.1198 83.9688 16.8542 84 16.5312L83.5938 16.5156C83.5312 17.2344 83.349 17.599 83.0469 17.6094C82.8177 17.5885 82.7031 17.3281 82.7031 16.8281V13.5625C82.7031 12.2604 82.099 11.4583 80.8906 11.1562C80.5781 11.0833 80.2396 11.0469 79.875 11.0469C78.4583 11.0469 77.5677 11.3542 77.2031 11.9688C77.1094 12.125 77.0625 12.2917 77.0625 12.4688C77.0625 12.875 77.2552 13.1302 77.6406 13.2344C77.7344 13.2656 77.8333 13.2812 77.9375 13.2812C78.3854 13.2812 78.6875 13.0625 78.8438 12.625C78.8646 12.5625 78.8958 12.4583 78.9375 12.3125C79.0521 11.8958 79.1979 11.6354 79.375 11.5312C79.4896 11.4792 79.6198 11.4531 79.7656 11.4531C80.2552 11.4531 80.5521 11.75 80.6562 12.3438C80.6979 12.5625 80.7188 12.8229 80.7188 13.125V14.1406C78.0417 14.1927 76.6979 14.901 76.6875 16.2656C76.6875 17.1927 77.0938 17.7865 77.9062 18.0469C78.1458 18.1198 78.4115 18.1562 78.7031 18.1562C79.5885 18.1562 80.2396 17.8229 80.6562 17.1562C80.7396 17.0208 80.8073 16.8802 80.8594 16.7344C81.0781 17.6302 81.6042 18.1042 82.4375 18.1562ZM79.5156 17.4844C78.9948 17.4635 78.7292 17 78.7188 16.0938C78.7188 15.4062 79 14.9583 79.5625 14.75C79.8646 14.6562 80.25 14.599 80.7188 14.5781V16.0938C80.5208 16.8229 80.2031 17.2708 79.7656 17.4375C79.6719 17.4688 79.5885 17.4844 79.5156 17.4844ZM84.3125 11.7656H85.3906V15.6719C85.3906 17.1823 86.0156 18.0104 87.2656 18.1562C87.3906 18.1667 87.5156 18.1719 87.6406 18.1719C88.4427 18.1719 88.9948 17.9115 89.2969 17.3906C89.4427 17.1302 89.5573 16.7865 89.6406 16.3594L89.2188 16.2969C89.0104 17.1406 88.7031 17.6042 88.2969 17.6875C88.2344 17.6979 88.1719 17.7031 88.1094 17.7031C87.724 17.7031 87.4896 17.4323 87.4062 16.8906C87.3854 16.7656 87.375 16.6354 87.375 16.5V11.7656H89.4375V11.3594H87.375V9.54688L85.3906 9.875V11.3594H84.3125V11.7656ZM92.7812 17.7188C93.4792 17.7188 93.8802 17.4688 93.9844 16.9688C93.9948 16.8958 94 16.8281 94 16.7656C94 16.2344 93.6667 15.7917 93 15.4375C92.8542 15.3542 92.6198 15.2448 92.2969 15.1094C91.5156 14.7656 91 14.4479 90.75 14.1562C90.4792 13.8438 90.3438 13.474 90.3438 13.0469C90.3438 12.1615 90.8281 11.5625 91.7969 11.25C92.2031 11.1146 92.6562 11.0469 93.1562 11.0469C93.9688 11.0469 94.6042 11.1927 95.0625 11.4844C95.0625 11.1719 95.1562 11 95.3438 10.9688C95.3854 10.9583 95.4271 10.9531 95.4688 10.9531V12.9062H94.9688C94.9271 11.9583 94.4115 11.4792 93.4219 11.4688C92.7552 11.4688 92.3438 11.6875 92.1875 12.125C92.1562 12.2292 92.1406 12.3333 92.1406 12.4375C92.1406 12.8854 92.4531 13.2656 93.0781 13.5781C93.2031 13.651 93.4115 13.75 93.7031 13.875C94.5156 14.2396 95.0573 14.5729 95.3281 14.875C95.6406 15.2292 95.7969 15.651 95.7969 16.1406C95.7969 17.0469 95.3281 17.6562 94.3906 17.9688C94.0052 18.0938 93.5729 18.1562 93.0938 18.1562C92.1771 18.1562 91.4062 17.9948 90.7812 17.6719C90.7812 17.9427 90.7135 18.099 90.5781 18.1406C90.5156 18.151 90.4427 18.1562 90.3594 18.1562V15.7812H90.8906C90.9115 17.0625 91.5417 17.7083 92.7812 17.7188Z" fill="black"/>
<path d="M65.8964 3.41601C65.4298 1.78535 63.3815 1.67578 62.4336 1.94133C62.4336 1.94133 62.3502 1.87558 62.6463 1.57953C59.6484 2.96957 61.9399 5.72215 61.9012 8.04375C61.7646 7.86801 61.6043 7.69312 61.484 7.65703C61.8943 8.17652 61.6683 9.17855 61.4165 9.53133C60.3603 8.76562 58.2944 7.53629 56.528 7.6957C56.528 7.6957 56.528 7.52383 56.5589 7.08898C56.0553 7.7825 55.2862 7.72492 54.3804 7.91355C54.4891 7.82031 54.7383 7.49332 54.8161 7.15129C54.2914 7.67937 53.1605 7.86629 52.3725 8.24054C51.33 8.70761 50.8007 9.73457 50.4896 10.2635C50.4896 10.2635 50.4715 10.2743 50.3314 9.94769C50.8608 9.26277 50.334 7.94492 49.8983 7.49332C49.8046 8.03816 49.7428 8.50523 49.1679 9.37664C48.95 9.29887 48.3587 9.37664 48.3587 9.37664C48.3587 9.37664 48.779 8.62941 48.5921 8.84726C48.4052 9.06511 47.5651 9.39211 47.5651 9.39211L47.5342 8.80086C46.906 9.96875 47.0937 9.26922 46.1789 10.2171C45.9452 10.1393 45.167 9.53219 44.9182 8.92547C44.2333 10.3413 45.4631 11.2058 45.4631 11.2058C45.4631 11.2058 45.4786 11.2131 45.4472 11.5242C45.4158 11.8353 45.6328 12.6135 45.6328 12.6135C45.6328 12.6135 44.327 12.925 44 13.4062C44.1719 13.2344 45.6547 12.699 45.6861 12.7922C45.7175 12.8855 45.852 13.142 45.852 13.142C45.852 13.142 44.9182 13.5154 44.6059 13.8725C44.9015 13.5923 45.9284 13.2653 45.9598 13.3276C45.9912 13.3899 46.1777 13.53 46.1777 13.53C46.1777 13.53 45.7106 13.7792 45.4618 14.1058C45.7106 13.857 46.2709 13.6237 46.2709 13.6237C46.5962 13.9842 48.1766 14.3662 48.7455 14.4482C49.1189 14.4951 49.2899 14.2304 49.2899 14.2304C50.3478 14.8921 49.2791 18.5543 48.8877 19.134C48.2109 19.317 47.8479 19.6114 48.1731 20.3607H49.5271C50.108 19.1851 50.496 16.7333 51.4546 15.0361C52.0356 16.0737 51.4546 18.6978 51.3923 18.9411C51.1023 19.6741 50.3972 19.2693 50.6451 20.3792C50.6451 20.3792 51.5165 20.3637 51.9527 20.3792C52.2169 20.2391 52.2483 19.7725 52.186 19.43C52.2311 18.3326 53.1364 17.258 53.2284 16.0531C53.2443 15.5375 53.5898 14.0018 54.1935 13.3139C54.8492 12.5666 56.6057 12.2555 57.2593 12.769C55.9522 13.9674 57.0569 15.7107 57.4148 16.0995C57.7728 16.4884 57.9597 17.6713 57.9597 17.9205C57.9597 18.1698 57.6589 19.1061 57.3792 19.2461C57.0995 19.3862 56.3522 19.5731 56.5855 20.3513C56.8034 20.3668 57.924 20.3977 57.924 20.3977L59.7339 16.7067C59.7339 16.7067 59.3291 15.6638 59.3901 14.8234C59.7768 16.9855 63.0657 16.619 61.6 19.3621C60.9735 19.4571 60.4265 19.7441 60.8373 20.4046L62.0202 20.4205C62.5814 20.1012 63.0515 18.7554 63.3119 17.7336C63.4674 16.9245 63.1095 16.769 63.0472 16.7376C62.9849 16.7062 61.7401 15.088 61.6468 14.5746C61.8617 12.6332 62.9789 12.8524 62.0336 10.1857C62.96 9.25332 62.9183 6.9416 62.1113 5.42351C61.2146 3.5664 61.7714 1.93359 63.7334 2.31129C65.9471 2.5691 65.5991 4.53492 64.9301 5.11414C64.6585 5.34875 64.1644 5.35047 64.1068 4.92594C64.0711 4.66168 64.3092 4.59636 64.4024 4.59894C64.5262 4.60238 64.7462 4.73902 64.7762 4.58347C64.8063 4.42793 64.5219 3.97074 63.9981 4.16324C63.1 4.49324 63.5155 5.42351 63.858 5.64136C65.1101 6.38172 66.3747 4.74461 65.8964 3.41601ZM49.5859 10.2923C49.601 10.9368 49.543 11.4198 48.5186 11.6905C48.4726 10.8939 49.5859 10.2923 49.5859 10.2923ZM46.2064 11.3309C47.364 11.1057 47.8152 11.767 47.8152 11.767C47.349 12.143 46.3568 11.9625 46.2064 11.3309ZM48.6595 13.5859C47.5978 13.8737 46.8978 13.313 46.478 12.6792C46.6679 12.7699 46.8658 12.8425 47.0693 12.8962L47.3309 13.3654L47.5028 12.9787C48.024 13.0419 48.6509 12.9787 49.2297 12.5598C49.3376 12.6784 49.4948 12.8343 49.5473 12.9035L49.647 12.1795C49.7397 12.0753 49.8258 11.9654 49.9048 11.8503C50.0943 12.338 49.6487 13.3177 48.6595 13.5859Z" fill="black"/>
</svg>
